<?xml version="1.0" encoding="utf-8"?>
<!-- Generator: Adobe Illustrator 27.0.1, SVG Export Plug-In . SVG Version: 6.00 Build 0)  -->
<svg version="1.1" id="Capa_1" xmlns="http://www.w3.org/2000/svg" xmlns:xlink="http://www.w3.org/1999/xlink" x="0px" y="0px"
	 viewBox="0 0 300 300" style="enable-background:new 0 0 300 300;" xml:space="preserve">
<style type="text/css">
	.st0{fill:#83B62C;}
</style>
<g>
	<path class="st0" d="M158.3,16v26.4c0,2.4-1.9,4.3-4.3,4.3H45v206.8h109c2.4,0,4.3,1.9,4.3,4.3V284c0,2.4-1.9,4.3-4.3,4.3H14.3
		c-2.4,0-4.3-1.9-4.3-4.3V16c0-2.4,1.9-4.3,4.3-4.3H154C156.4,11.7,158.3,13.6,158.3,16z"/>
	<g>
		<path class="st0" d="M129,113.9v72.2c0,2.4-1.9,4.3-4.4,4.3H105c-2.4,0-4.4-1.9-4.4-4.3v-72.2c0-2.4,1.9-4.4,4.4-4.4h19.6
			C127.1,109.6,129,111.5,129,113.9z"/>
		<path class="st0" d="M238.1,100.7l49,41.8c3.9,3.3,3.9,11.7,0,15l-49,41.8l-49,41.8c-3.9,3.3-8.8-0.8-8.8-7.5v-43.8h-40.5
			c-2.1,0-3.7-1.7-3.7-3.7v-73.4c0-2.1,1.7-3.7,3.7-3.7h40.5V66.4c0-6.7,4.9-10.8,8.8-7.5L238.1,100.7z"/>
	</g>
</g>
</svg>
