<?xml version="1.0" encoding="UTF-8" standalone="no"?>
<!-- Created with Inkscape (http://www.inkscape.org/) -->

<svg
   width="150"
   height="150"
   viewBox="0 0 512 512"
   version="1.1"
   id="svg5"
   inkscape:version="1.2.2 (b0a8486541, 2022-12-01)"
   sodipodi:docname="harvest.svg"
   xmlns:inkscape="http://www.inkscape.org/namespaces/inkscape"
   xmlns:sodipodi="http://sodipodi.sourceforge.net/DTD/sodipodi-0.dtd"
   xmlns="http://www.w3.org/2000/svg"
   xmlns:svg="http://www.w3.org/2000/svg">
  <sodipodi:namedview
     id="namedview7"
     pagecolor="#ffffff"
     bordercolor="#000000"
     borderopacity="0.25"
     inkscape:showpageshadow="2"
     inkscape:pageopacity="0.0"
     inkscape:pagecheckerboard="0"
     inkscape:deskcolor="#d1d1d1"
     inkscape:document-units="px"
     showgrid="false"
     inkscape:zoom="1.5839844"
     inkscape:cx="255.68434"
     inkscape:cy="263.26017"
     inkscape:window-width="1920"
     inkscape:window-height="991"
     inkscape:window-x="0"
     inkscape:window-y="0"
     inkscape:window-maximized="1"
     inkscape:current-layer="svg5" />
  <defs
     id="defs2" />
  <g
     inkscape:label="Capa 1"
     inkscape:groupmode="layer"
     id="layer1" />
  <path
     id="path79"
     style="fill:#83B62C"
     d="m 81.980092,198.12245 c -24.34,23.4 -51.1,21.82 -81.17999952,-16.86 29.87999952,-19.38 65.62999952,-21.25 81.17999952,16.86 z m 224.219998,151.59 8.93,-8.94 -26.04,-26.01 a 6.967,6.967 0 0 1 -1.31,-8.07 c 11.52,-22.81 19.18,-43.89 23.26,-63.37 4.04,-19.24 4.6,-36.92 1.98,-53.15 -4.88,-30.17 -18.46,-54.06 -37.36,-71.7 -16.9,-15.76 -38.13,-26.6 -61.29,-32.52 -23.36,-5.97 -48.62,-6.95 -73.35,-2.95 -37.37,6.04 -73.559998,23.41 -100.259998,52.04 -5.22,5.61 -14.35,-0.21 -11.59,-7.28 12.56,-32 34.62,-58.26 61.88,-77.57 28.779998,-20.42 63.399998,-33.05 98.709998,-36.48 17.83,-1.73 34.95,-1.18 51.09,1.39 38.03,6.07 70.63,23.37 94.67,48.73 24.06,25.38 39.52,58.79 43.23,97.02 1.54,15.91 1.05,32.67 -1.72,50.02 -2.25,14.11 -6,28.43 -11.31,42.73 -4.51,12.22 -10.22,24.48 -17.14,36.64 l 8.52,8.57 7.56,-7.57 c 2.06,-2.05 4.74,-3.07 7.41,-3.07 2.64,0 5.31,1.03 7.34,3.04 l 32.47,32.45 -73.27,73.27 -32.41,-32.4 a 10.51,10.51 0 0 1 -3.07,-7.41 c 0,-2.68 1.02,-5.36 3.07,-7.41 z m 118.84,-12.89 72.63,72.61 0.52,0.57 c 9.74,10.03 14.61,23.06 14.61,36.07 0,13.25 -5.05,26.52 -15.13,36.61 v 0.03 c -10.09,10.09 -23.37,15.13 -36.64,15.13 v -0.03 c -13.27,-0.01 -26.55,-5.04 -36.6,-15.1 l -72.66,-72.63 z m -100.06,-5.89 22.27,-22.27 -12.3,-12.4 a 6.979,6.979 0 0 1 -1.04,-8.48 c 7.64,-12.81 13.87,-25.89 18.75,-39.03 5,-13.4 8.52,-26.82 10.63,-40.06 2.58,-16.17 3.04,-31.76 1.61,-46.54 -3.4,-35.01 -17.51,-65.56 -39.47,-88.72 -21.98,-23.18 -51.86,-39.02 -86.76,-44.59 -15,-2.39 -30.95,-2.89 -47.6,-1.28 -32.9,3.19 -65.15,14.96 -91.959998,33.96 -15.22,10.76 -28.66,23.86 -39.45,39.04 23.8,-16.34 51.199998,-26.78 79.179998,-31.3 26.64,-4.31 53.84,-3.26 78.96,3.17 25.34,6.47 48.66,18.42 67.34,35.85 21.08,19.66 36.21,46.23 41.62,79.71 2.89,17.9 2.3,37.24 -2.08,58.16 -4.07,19.37 -11.39,40.1 -22.22,62.29 z m -148.98,-104.13 c -4.1,31.56 -13.83,44.67 -63.64,41.78 15.18,-30.05 22.48,-56.03 63.64,-41.78 z m -112.159998,27.74 c 12.6,-25.04 19.71,-52.57 59.269998,-38.89 -4.93,37.79 -23.769998,40.97 -59.269998,38.89 z m 128.689998,-104.25 c 1.79,33.9 -3.78,67.85 46.7,71.93 12.94,-44.24 -6.38,-56.96 -46.7,-71.93 z m -54.42,-4.35 c 1.63,30.09 -3.32,60.23 41.46,63.84 11.49,-39.25 -5.7,-50.54 -41.46,-63.84 z m -11.45,52.78 c 8.32,-28.46 4.96,-43.27 -38.619998,-59.44 1.65,31.31 -1.81,56.2 38.619998,59.44 z m 108.96,40.69 c -4.63,35.58 -15.58,50.36 -71.69,47.07 17.07,-33.88 25.3,-63.12 71.69,-47.07 z m 23.26,-12.86 c -4.66,-0.97 -9.19,2.03 -10.16,6.64 a 8.587,8.587 0 0 0 6.64,10.16 l 21.35,4.49 3.53,-16.8 z" />
</svg>
