<?xml version="1.0" encoding="utf-8"?>
<!-- Generator: Adobe Illustrator 27.0.1, SVG Export Plug-In . SVG Version: 6.00 Build 0)  -->
<svg version="1.1" id="Capa_1" xmlns="http://www.w3.org/2000/svg" xmlns:xlink="http://www.w3.org/1999/xlink" x="0px" y="0px"
	 viewBox="0 0 300 300" style="enable-background:new 0 0 300 300;" xml:space="preserve">
<style type="text/css">
	.st0{fill:#83B62C;}
</style>
<g>
	<path class="st0" d="M145.4,165.7c-0.6,0.5-1.2,1-1.7,1.5c-0.6,0.5-1.2,1-1.8,1.5c-1.3,1-2.6,2-3.9,2.9l-27.5,56.5l-5.5-32.5
		l8.1-13.1c-1,0.2-2,0.4-3,0.6c-2.6,0.5-5.2,0.8-7.8,0.9c-1.5,0.1-2.9,0.2-4.4,0.2c-5.6,0-11.1-0.7-16.4-2l8.3,13.4l-5.2,33.1
		l-30.5-59.9c-1.4-1.1-2.8-2.3-4.1-3.5l-0.6,0.5C19.8,191.4,12,230.9,9.9,251.7h172.9C177.2,190.9,151.9,170.1,145.4,165.7z"/>
	<path class="st0" d="M97.9,48.3c-36.1,0-65.5,29.4-65.5,65.5s29.4,65.5,65.5,65.5s65.5-29.4,65.5-65.5S134,48.3,97.9,48.3z"/>
	<path class="st0" d="M285.6,208.5c0.4-0.3,0.6-0.7,0.6-1.2s-0.3-0.9-0.7-1.1c-0.1-0.1-11.1-5.8-14-13.4c3.8,3.8,8.4,5.4,14.4,6.5
		c0.5,0.1,0.9-0.1,1.2-0.5c0.3-0.3,0.4-0.9,0.2-1.3c-5.7-13.9-8.5-30.4-11.3-46.3c-1.7-9.7-3.3-19.2-5.5-27.7
		c-0.7-3.7-1.9-7.2-3.4-10.5c-1.6-4.2-3.5-7.9-5.7-11.1c-2.5-3.5-9.1-12.9-24.3-16c-4.9-1.6-10.1-2.5-15.5-2.5
		c-10.9,0-20.3,3.6-28.1,9.6c-7.4,4.7-12.9,11.7-17,21.9c-2.7,5.7-4.6,12-5.7,18.5c-0.3,1.8-0.5,3.5-0.6,5.2c-0.4,2.1-0.7,4.3-1,6.6
		c-1.5,10.7-0.4,24.7,1.7,37.9c8.7,13.9,17.3,35.6,20.4,68.6H290c-0.7-9.1-3-24.6-10-40C283.3,210,285.3,208.6,285.6,208.5z
		 M255.2,200.6c-0.8,1-16.3,11.1-16.3,11.1l7.6,10.4L222.4,241v0.1l-0.1-0.1l-0.1,0.1V241l-24.1-18.9l7.6-10.4
		c0,0-15.5-10.1-16.3-11.1c-1.4-1.7,6.9-9.7,6.9-9.7l25.9,50l25.9-50C248.3,190.9,256.6,198.9,255.2,200.6z"/>
</g>
</svg>
