<?xml version="1.0" encoding="utf-8"?>
<!-- Generator: Adobe Illustrator 27.0.1, SVG Export Plug-In . SVG Version: 6.00 Build 0)  -->
<svg version="1.1" id="Capa_1" xmlns="http://www.w3.org/2000/svg" xmlns:xlink="http://www.w3.org/1999/xlink" x="0px" y="0px"
	 viewBox="0 0 300 300" style="enable-background:new 0 0 300 300;" xml:space="preserve">
<style type="text/css">
	.st0{fill:#83B62C;}
</style>
<path class="st0" d="M237.8,122h-6.7V91.8c0-45.1-36.4-81.8-81.2-81.8S68.7,46.7,68.7,91.8V122H62c-13.6,0-24.7,11.2-24.7,24.9
	v118.2c0,13.8,11.1,24.9,24.7,24.9h175.7c13.6,0,24.7-11.2,24.7-24.9V146.9C262.5,133.2,251.5,122,237.8,122z M160.4,207.6v15.5
	c0,2.3-1.9,4.2-4.1,4.2h-12.4c-2.3,0-4.1-1.9-4.1-4.2v-15.5c-5.7-3.5-9.5-9.8-9.5-17c0-11,8.9-20,19.8-20c10.9,0,19.8,8.9,19.8,20
	C169.8,197.8,166,204.1,160.4,207.6z M195.6,122h-91.2V91.8c0-25.3,20.4-45.9,45.6-45.9c25.1,0,45.6,20.6,45.6,45.9V122z"/>
</svg>
