<?xml version="1.0" encoding="utf-8"?>
<!-- Generator: Adobe Illustrator 26.2.1, SVG Export Plug-In . SVG Version: 6.00 Build 0)  -->
<svg version="1.1" id="Capa_1" xmlns="http://www.w3.org/2000/svg" xmlns:xlink="http://www.w3.org/1999/xlink" x="0px" y="0px"
	 viewBox="0 0 150 150" style="enable-background:new 0 0 150 150;" xml:space="preserve">
<style type="text/css">
	.st0{fill:#1D1D1B;}
	.st1{fill:none;stroke:#1D1D1B;stroke-width:5;stroke-miterlimit:10;}
	.st2{fill:#D6E3BF;}
	.st3{fill:none;stroke:#1D1D1B;stroke-width:3;stroke-miterlimit:10;}
	.st4{fill-rule:evenodd;clip-rule:evenodd;fill:#1D1D1B;}
</style>
<g id="XMLID_8843_">
	<path id="XMLID_8847_" class="st0" d="M-1337.7,58.5c0.7-3,1.1-6,1.1-9.1c0-21.2-17.3-38.5-38.5-38.5c-21.2,0-38.5,17.3-38.5,38.5
		c0,3.1,0.4,6.1,1.1,9.1c1,6.2,2.4,11.3,4.2,15c3.8,7.9,19.7,34.2,27,46.1c-9.9,1.3-14.5,5.5-14.5,9.5c0,4.8,6.5,9.9,20.7,9.9
		c14.2,0,20.7-5.1,20.7-9.9c0-4-4.6-8.3-14.5-9.5c7.3-11.9,23.2-38.2,27-46.1C-1340.2,69.8-1338.8,64.8-1337.7,58.5z M-1360.4,129.1
		c-0.4,1.1-5.4,3.9-14.7,3.9c-9.4,0-14.4-2.9-14.7-3.9c0.3-1,4.3-3.4,12-3.9c0.1,0.1,0.2,0.3,0.2,0.3c0.5,0.9,1.5,1.4,2.5,1.4
		c1,0,2-0.5,2.5-1.4c0-0.1,0.1-0.2,0.2-0.3C-1364.9,125.8-1360.8,128.1-1360.4,129.1z M-1403,71c-1.5-3.2-2.8-7.8-3.7-13.5
		c0-0.1,0-0.2,0-0.2c-0.6-2.6-0.9-5.2-0.9-7.8c0-17.9,14.6-32.5,32.5-32.5c17.9,0,32.5,14.6,32.5,32.5c0,2.6-0.3,5.2-0.9,7.8
		c0,0.1,0,0.2,0,0.2c-0.9,5.7-2.2,10.3-3.7,13.5c-3.8,8-21.2,36.6-27.8,47.4C-1381.7,107.6-1399.2,79-1403,71z"/>
	<path id="XMLID_8844_" class="st0" d="M-1375.1,27.7c-11.4,0-20.7,9.3-20.7,20.7c0,11.4,9.3,20.7,20.7,20.7
		c11.4,0,20.7-9.3,20.7-20.7C-1354.5,37-1363.8,27.7-1375.1,27.7z M-1389.9,48.3c0-8.1,6.6-14.7,14.7-14.7c8.1,0,14.7,6.6,14.7,14.7
		s-6.6,14.7-14.7,14.7C-1383.3,63.1-1389.9,56.5-1389.9,48.3z"/>
</g>
<g id="XMLID_8661_">
	<path id="XMLID_8668_" class="st0" d="M-1201.8,68.1c0.8-0.3,1.4-1.1,1.4-2v-53c0-1.2-1-2.2-2.2-2.2c-14.4,0-28,5.5-38.4,15.6
		c-0.4,0.4-0.7,0.9-0.7,1.5c0,0.6,0.2,1.1,0.6,1.5l36.9,38.1c0.4,0.4,1,0.7,1.6,0.7C-1202.3,68.2-1202.1,68.2-1201.8,68.1z
		 M-1204.8,60.7l-31.6-32.6c8.8-7.8,19.9-12.3,31.6-12.8V60.7z"/>
	<path id="XMLID_8665_" class="st0" d="M-1202.8,77.4c0.1-0.6-0.2-1.3-0.6-1.7l-36.9-38.1c-0.4-0.4-0.9-0.6-1.5-0.7
		c-0.6,0-1.1,0.2-1.5,0.6c-10.8,10.5-16.8,24.6-16.8,39.6c0,11.5,3.5,22.5,10.2,31.9c0.4,0.6,1.1,0.9,1.8,0.9c0.4,0,0.9-0.1,1.3-0.4
		l43.2-30.6C-1203.2,78.6-1202.8,78-1202.8,77.4z M-1247.6,104.8c-5.3-8.2-8.2-17.7-8.2-27.6c0-13.1,4.9-25.5,14-35l33.6,34.7
		L-1247.6,104.8z"/>
	<path id="XMLID_8662_" class="st0" d="M-1137.5,75.5c-0.1-0.9-0.3-1.8-0.4-2.7v0c-0.4-1.9-0.8-3.8-1.3-5.6
		c-0.2-0.8-0.5-1.6-0.7-2.4c-0.6-1.7-1.2-3.4-2-5c-0.3-0.7-0.7-1.4-1-2.1c-0.8-1.5-1.6-3-2.5-4.5c-0.4-0.6-0.8-1.3-1.2-1.9
		c-1-1.5-2.2-3-3.3-4.4c-0.5-0.6-0.9-1.1-1.4-1.7c-1.1-1.2-2.2-2.4-3.5-3.5c-0.5-0.5-1.1-1-1.6-1.5c-1.3-1.1-2.6-2.1-3.9-3.1
		c-0.6-0.4-1.2-0.9-1.8-1.3c-1.4-1-2.9-1.9-4.4-2.6c-0.7-0.4-1.4-0.7-2-1.1c-1.8-0.9-3.6-1.6-5.4-2.3c-0.8-0.3-1.5-0.5-2.3-0.8
		c-1.8-0.6-3.7-1-5.5-1.4c-0.9-0.2-1.7-0.3-2.6-0.5c-2.1-0.3-4.2-0.5-6.4-0.6c-0.8,0-1.5-0.1-2.3-0.1c-1.8,0-3.2,1.4-3.2,3.2v51.3
		l-41.9,29.7c-0.7,0.5-1.2,1.2-1.3,2.1c-0.1,0.8,0.1,1.7,0.6,2.4l0.2,0.3c0.9,1.3,1.9,2.5,3.1,3.9c0.5,0.6,1,1.1,1.5,1.6
		c1.1,1.2,2.3,2.3,3.5,3.4c0.5,0.5,1.1,1,1.7,1.4c1.5,1.3,3,2.4,4.4,3.3c0.5,0.4,1.1,0.7,1.6,1l0.3,0.2c1.5,0.9,3,1.7,4.5,2.5
		c0.7,0.3,1.4,0.7,2.1,1c1.5,0.7,3.2,1.3,5,2c0.8,0.3,1.6,0.5,2.3,0.7c2,0.6,3.8,1,5.6,1.4c0.9,0.2,1.8,0.3,2.7,0.4
		c2.4,0.3,4.9,0.5,7.2,0.5c0,0,0.2,0,0.2,0c1,0,2,0,3-0.1c2.7-0.1,5.3-0.5,8-1c1.3-0.3,2.7-0.6,4.1-1c4.1-1.1,8-2.7,11.7-4.7
		c3.7-2,7.2-4.5,10.4-7.3c1.8-1.6,3.5-3.3,5-5c2.8-3.2,5.3-6.7,7.3-10.4c2-3.7,3.6-7.6,4.7-11.7c0.4-1.4,0.7-2.8,1-4.1
		c0.5-2.6,0.9-5.3,1-8c0-1,0.1-2,0.1-3l0-0.2C-1137,80.4-1137.2,77.9-1137.5,75.5z M-1141.4,85.7c-0.1,2.5-0.4,4.9-0.9,7.4
		c-0.2,1.2-0.5,2.4-0.9,3.8c-1.1,3.8-2.5,7.4-4.4,10.8c-1.8,3.4-4.1,6.6-6.7,9.6c-1.4,1.6-3,3.2-4.6,4.6c-3,2.6-6.2,4.9-9.6,6.7
		c-3.4,1.8-7,3.3-10.8,4.4c-1.3,0.4-2.5,0.7-3.8,0.9c-2.4,0.5-4.9,0.8-7.4,0.9c-0.9,0-1.8,0.1-2.8,0.1c0,0-0.1,0-0.1,0
		c-2.2,0-4.4-0.2-6.7-0.5c-0.8-0.1-1.7-0.2-2.5-0.4c-1.7-0.3-3.4-0.7-5.2-1.2c-0.7-0.2-1.4-0.5-2.2-0.7c-1.7-0.6-3.2-1.2-4.6-1.8
		c-0.7-0.3-1.3-0.6-1.9-0.9c-1.4-0.7-2.8-1.5-4.1-2.3l-0.3-0.2c-0.5-0.3-1-0.6-1.4-0.9c-1.3-0.9-2.6-1.9-4.1-3.1
		c-0.5-0.4-1-0.9-1.5-1.3c-1.2-1-2.2-2.1-3.3-3.2c-0.5-0.5-0.9-1-1.3-1.5c-0.9-1-1.7-2-2.4-2.9l41.9-29.7c0.6-0.4,0.9-1.1,0.9-1.8
		V31c0.3,0,0.6,0,1,0c2,0.1,4,0.3,5.9,0.6c0.8,0.1,1.6,0.3,2.4,0.4c1.7,0.4,3.5,0.8,5.1,1.3c0.7,0.2,1.4,0.5,2.1,0.7
		c1.7,0.6,3.4,1.3,5,2.1c0.6,0.3,1.3,0.6,1.9,1c1.3,0.7,2.7,1.5,4,2.4c0.6,0.4,1.1,0.8,1.7,1.2c1.2,0.9,2.4,1.8,3.6,2.8
		c0.5,0.4,1,0.9,1.5,1.4c1.1,1,2.2,2.1,3.2,3.2c0.5,0.5,0.9,1,1.3,1.5c1.1,1.3,2.1,2.7,3.1,4.1c0.4,0.6,0.8,1.2,1.1,1.7
		c0.8,1.3,1.6,2.7,2.3,4.1c0.3,0.6,0.6,1.3,0.9,1.9c0.7,1.5,1.3,3.1,1.8,4.6c0.2,0.7,0.5,1.4,0.7,2.2c0.5,1.7,0.9,3.4,1.2,5.2
		c0.1,0.8,0.3,1.6,0.4,2.5c0.3,2.3,0.5,4.5,0.5,6.7l0,0.1C-1141.3,83.8-1141.4,84.8-1141.4,85.7z"/>
</g>
<g>
	<path class="st0" d="M-1007,108.4l-15.8,21l-15.8-21h8.9c1.3,0,2.4-1.1,2.4-2.4V75.4h9.5v30.5c0,1.3,1.1,2.4,2.4,2.4H-1007z
		 M-1032.1,103.5h-11.4c-0.9,0-1.8,0.5-2.2,1.3c-0.4,0.8-0.3,1.8,0.2,2.5l20.7,27.5c0.5,0.6,1.2,1,1.9,1c0.8,0,1.5-0.4,1.9-1
		l20.7-27.5c0.6-0.7,0.6-1.7,0.2-2.5c-0.4-0.8-1.3-1.3-2.2-1.3h-10.7v-4.1v-3.6l-0.1-22.9c-0.1-1.3-1.1-2.3-2.4-2.3h-14.4
		c-1.3,0-2.4,1.1-2.4,2.4"/>
	<path class="st0" d="M-959.4,75.2c0-14.1-12-25.6-26.9-25.6c-1,0-2,0.1-2.9,0.2c0.1-0.8,0.1-1.5,0.1-2.3c0-18.4-15-33.4-33.3-33.4
		c-8.4,0-16.5,3.2-22.7,8.9c-6.1,5.7-9.9,13.4-10.6,21.7c-1.2-0.2-2.5-0.2-3.7-0.2c-15.5,0-28.1,12.6-28.1,28.1
		c0,15.4,12.6,28,28,28.1l20.3,0v-5.1h-19.8l-0.5,0c-12.6-0.1-22.9-10.4-22.9-23c0-12.7,10.3-23,23-23c1,0,2,0.1,3,0.2l2.7,0.4
		c0.7,0.1,1.4-0.1,2-0.6c0.5-0.4,0.9-1.1,0.9-1.8l0.2-2.7c0.6-7,3.7-13.6,8.9-18.4c5.2-4.9,12-7.5,19.2-7.5
		c15.6,0,28.2,12.7,28.2,28.2c0,0.6,0,1.3-0.1,1.9l-0.2,3c-0.1,0.8,0.2,1.5,0.8,2c0.5,0.5,1.3,0.8,2.1,0.7l3-0.3
		c0.8-0.1,1.6-0.1,2.4-0.1c12,0,21.7,9.2,21.7,20.5c0,11.2-9.7,20.4-21.6,20.4l-20.5,0v5.1h20.2l0.4,0
		C-971.4,100.7-959.4,89.2-959.4,75.2"/>
</g>
<circle class="st1" cx="-1550.2" cy="78.8" r="61.1"/>
<g>
	<path class="st0" d="M-1538.7,107.3h-23.1c-1.1,0-1.9-0.4-2.7-1.1c-0.7-0.7-1.1-1.6-1.1-2.7c0-1,0.4-1.9,1.1-2.7
		c0.7-0.8,1.6-1.1,2.7-1.1h7.7V71.4h-7.7c-1.1,0-1.9-0.4-2.7-1.1c-0.7-0.8-1.1-1.6-1.1-2.7c0-1.1,0.4-2,1.1-2.7
		c0.7-0.8,1.6-1.1,2.7-1.1h11.5c1.1,0,1.9,0.4,2.7,1.1c0.7,0.8,1.1,1.7,1.1,2.7v32h7.6c1.1,0,2,0.4,2.7,1.1c0.8,0.7,1.1,1.6,1.1,2.7
		c0,1.1-0.4,1.9-1.1,2.7C-1536.8,106.9-1537.7,107.3-1538.7,107.3z M-1554.1,44.2h4c1.1,0,1.9,0.4,2.7,1.1c0.7,0.7,1.1,1.6,1.1,2.7
		v3.2c0,1.1-0.4,2-1.1,2.7c-0.7,0.8-1.6,1.1-2.7,1.1h-4.1c-1.1,0-2-0.4-2.7-1.2c-0.7-0.8-1.1-1.7-1.1-2.6l0.1-3.3
		c0-1.1,0.4-1.9,1.1-2.7C-1556,44.5-1555.1,44.2-1554.1,44.2z"/>
</g>
<g>
	<path class="st0" d="M-789.1,123.5c-0.1,0.2-0.4,0.6-1,0.6h-110.6c-0.6,0-0.9-0.4-1-0.6c-0.1-0.2-0.3-0.6,0-1.1l55.3-95.8
		c0.3-0.5,0.8-0.6,1-0.6s0.7,0.1,1,0.6l55.3,95.8C-788.8,122.8-789,123.3-789.1,123.5 M-785.2,120.1l-55.3-95.8
		c-1-1.8-2.9-2.8-4.9-2.8c-2.1,0-3.9,1.1-4.9,2.8l-55.3,95.8c-1,1.8-1,3.9,0,5.7s2.9,2.8,4.9,2.8h110.6c2,0,3.9-1.1,4.9-2.8
		C-784.1,123.9-784.1,121.8-785.2,120.1"/>
	<path class="st0" d="M-845.4,49c-5.6,0-8.5,4.1-7.9,9.2h0l4.5,37.9h0c0.2,1.6,1.3,2.9,3.4,2.9c2,0,3.2-1.3,3.4-2.9h0l4.5-37.9h0
		C-836.9,53.2-839.7,49-845.4,49 M-839.7,110.4c0,3.1-1.9,5.7-5.7,5.7c-3.8,0-5.7-2.5-5.7-5.7c0-3.1,1.9-5.7,5.7-5.7
		C-841.6,104.7-839.7,107.3-839.7,110.4"/>
</g>
<g>
	<path class="st2" d="M-662.5,70.1c-14.8,11.3-54.5,41.5-58.5,44.8c-2.9,2.4-3,5.1-2.6,7c0.4,1.9,1.6,3.3,1.6,3.4
		c0.1,0.1,2.4,2.9,5.8,2.9c1.6,0,3.1-0.6,4.6-1.8c4-3.3,41.5-36.1,55.5-48.4l-1.3-1.6c-13.9,12.2-51.6,45.2-55.5,48.4
		c-1.1,0.9-2.2,1.3-3.3,1.3c-2.4,0-4.2-2.1-4.2-2.1c0,0-0.9-1.1-1.2-2.5c-0.4-1.9,0.2-3.5,1.9-4.9c3.9-3.2,43.7-33.6,58.5-44.8
		L-662.5,70.1z"/>
	<path class="st3" d="M-662.5,70.1c-14.8,11.3-54.5,41.5-58.5,44.8c-2.9,2.4-3,5.1-2.6,7c0.4,1.9,1.6,3.3,1.6,3.4
		c0.1,0.1,2.4,2.9,5.8,2.9c1.6,0,3.1-0.6,4.6-1.8c4-3.3,41.5-36.1,55.5-48.4l-1.3-1.6c-13.9,12.2-51.6,45.2-55.5,48.4
		c-1.1,0.9-2.2,1.3-3.3,1.3c-2.4,0-4.2-2.1-4.2-2.1c0,0-0.9-1.1-1.2-2.5c-0.4-1.9,0.2-3.5,1.9-4.9c3.9-3.2,43.7-33.6,58.5-44.8
		L-662.5,70.1z"/>
	<path class="st2" d="M-643.2,92.1l-30.7-37.5l-1.1,0.9c-0.2,0.1-0.3,0.2-0.5,0.3l30.7,37.6c0.1-0.1,0.3-0.3,0.4-0.4L-643.2,92.1z
		 M-615.4,69.3l-30.7-37.5c-0.1,0.1-0.2,0.2-0.3,0.3l-1.2,1l30.7,37.5l1.2-1C-615.6,69.5-615.5,69.4-615.4,69.3"/>
	<path class="st3" d="M-643.2,92.1l-30.7-37.5l-1.1,0.9c-0.2,0.1-0.3,0.2-0.5,0.3l30.7,37.6c0.1-0.1,0.3-0.3,0.4-0.4L-643.2,92.1z
		 M-615.4,69.3l-30.7-37.5c-0.1,0.1-0.2,0.2-0.3,0.3l-1.2,1l30.7,37.5l1.2-1C-615.6,69.5-615.5,69.4-615.4,69.3z"/>
	<path class="st2" d="M-612.4,69.4c-1,0-1.9,0.3-2.7,0.9l-28.6,23.4c-0.9,0.7-1.4,1.7-1.5,2.8c-0.1,1.1,0.2,2.2,0.9,3.1
		c1.4,1.7,4.2,2,5.9,0.6l28.6-23.4c0.9-0.7,1.4-1.7,1.5-2.8c0.1-1.1-0.2-2.2-0.9-3.1C-610,70-611.2,69.4-612.4,69.4 M-641.1,103.2
		c-1.9,0-3.6-0.8-4.8-2.3c-1.1-1.3-1.5-2.9-1.4-4.6c0.2-1.7,1-3.1,2.3-4.2l28.6-23.4c1.1-0.9,2.5-1.4,3.9-1.4c1.9,0,3.6,0.8,4.8,2.3
		c1.1,1.3,1.5,2.9,1.4,4.6s-1,3.1-2.3,4.2l-28.6,23.4C-638.2,102.7-639.6,103.2-641.1,103.2"/>
	<path class="st3" d="M-612.4,69.4c-1,0-1.9,0.3-2.7,0.9l-28.6,23.4c-0.9,0.7-1.4,1.7-1.5,2.8c-0.1,1.1,0.2,2.2,0.9,3.1
		c1.4,1.7,4.2,2,5.9,0.6l28.6-23.4c0.9-0.7,1.4-1.7,1.5-2.8c0.1-1.1-0.2-2.2-0.9-3.1C-610,70-611.2,69.4-612.4,69.4z M-641.1,103.2
		c-1.9,0-3.6-0.8-4.8-2.3c-1.1-1.3-1.5-2.9-1.4-4.6c0.2-1.7,1-3.1,2.3-4.2l28.6-23.4c1.1-0.9,2.5-1.4,3.9-1.4c1.9,0,3.6,0.8,4.8,2.3
		c1.1,1.3,1.5,2.9,1.4,4.6s-1,3.1-2.3,4.2l-28.6,23.4C-638.2,102.7-639.6,103.2-641.1,103.2z"/>
	<path class="st2" d="M-649.7,23.9c-1,0-1.9,0.3-2.6,0.9L-681,48.3c-0.9,0.7-1.4,1.7-1.5,2.8c-0.1,1.1,0.2,2.2,0.9,3.1
		c1.4,1.7,4.2,2,5.9,0.6l28.6-23.4c1.8-1.5,2-4.1,0.6-5.9C-647.2,24.4-648.4,23.9-649.7,23.9 M-678.3,57.7c-1.9,0-3.6-0.8-4.8-2.3
		c-1.1-1.3-1.5-2.9-1.4-4.6c0.2-1.7,1-3.1,2.2-4.2l28.6-23.4c2.6-2.1,6.7-1.7,8.8,0.9c2.2,2.7,1.8,6.6-0.9,8.8l-28.6,23.4
		C-675.5,57.2-676.9,57.7-678.3,57.7"/>
	<path class="st3" d="M-649.7,23.9c-1,0-1.9,0.3-2.6,0.9L-681,48.3c-0.9,0.7-1.4,1.7-1.5,2.8c-0.1,1.1,0.2,2.2,0.9,3.1
		c1.4,1.7,4.2,2,5.9,0.6l28.6-23.4c1.8-1.5,2-4.1,0.6-5.9C-647.2,24.4-648.4,23.9-649.7,23.9z M-678.3,57.7c-1.9,0-3.6-0.8-4.8-2.3
		c-1.1-1.3-1.5-2.9-1.4-4.6c0.2-1.7,1-3.1,2.2-4.2l28.6-23.4c2.6-2.1,6.7-1.7,8.8,0.9c2.2,2.7,1.8,6.6-0.9,8.8l-28.6,23.4
		C-675.5,57.2-676.9,57.7-678.3,57.7z"/>
</g>
<g>
	<g>
		<path class="st0" d="M-287.6,128.8c-14,0-27.3-5.3-37.4-14.9l3.1-3.2c9.3,8.8,21.5,13.7,34.3,13.7c27.5,0,49.8-22.4,49.8-49.8
			s-22.3-49.8-49.8-49.8c-23.3,0-43.8,16.5-48.7,39.3l-4.4-0.9c5.3-24.8,27.7-42.8,53.1-42.8c29.9,0,54.3,24.4,54.3,54.3
			S-257.7,128.8-287.6,128.8z"/>
	</g>
	<g>
		<path class="st0" d="M-287.6,128.8c-11,0-21.3-5.7-29.1-16.2l3.6-2.7c6.8,9.3,15.9,14.4,25.5,14.4c20,0,36.3-22.4,36.3-49.8
			s-16.3-49.8-36.3-49.8c-15.7,0-29.5,13.7-34.4,34.2l-4.4-1.1c5.4-22.5,21-37.6,38.8-37.6c22.5,0,40.8,24.4,40.8,54.3
			S-265.2,128.8-287.6,128.8z"/>
	</g>
	<g>
		<path class="st0" d="M-287.6,128.8c-7.7,0-14.8-7.1-19.5-19.4l4.2-1.6c4,10.5,9.6,16.5,15.4,16.5c11.3,0,20.9-22.8,20.9-49.8
			s-9.6-49.8-20.9-49.8c-9,0-17.4,15.1-20,35.8l-4.4-0.6c3-23.8,12.8-39.7,24.4-39.7c14.2,0,25.3,23.8,25.3,54.3
			S-273.4,128.8-287.6,128.8z"/>
	</g>
	<g>
		<rect x="-289.9" y="22.5" class="st0" width="4.5" height="104.1"/>
	</g>
	<g>
		<rect x="-297.1" y="72.3" class="st0" width="61.5" height="4.5"/>
	</g>
	<g>
		<path class="st0" d="M-287.6,53.7c-16.5,0-31.9-3.3-42.2-9.2l2.2-3.9c9.6,5.5,24.2,8.6,39.9,8.6c15.8,0,30.3-3.1,39.9-8.6l2.2,3.9
			C-255.8,50.3-271.1,53.7-287.6,53.7z"/>
	</g>
	<g>
		<path class="st0" d="M-247.7,108.5c-9.6-5.5-24.2-8.6-39.9-8.6c-3.5,0-7,0.2-10.3,0.5l-0.4-4.5c3.5-0.3,7.1-0.5,10.8-0.5
			c16.5,0,31.9,3.3,42.2,9.2L-247.7,108.5z"/>
	</g>
	<g>
		<g>
			<path class="st0" d="M-322,108.6c-6.1,0-12.1-2.3-16.7-6.9c-9.2-9.2-9.2-24.2,0-33.4c9.2-9.2,24.2-9.2,33.4,0
				c9.2,9.2,9.2,24.2,0,33.4l0,0C-309.9,106.3-315.9,108.6-322,108.6z M-322,65.8c-4.9,0-9.8,1.9-13.5,5.6c-7.5,7.5-7.5,19.6,0,27.1
				c7.5,7.5,19.6,7.5,27.1,0c7.5-7.5,7.5-19.6,0-27.1C-312.2,67.7-317.1,65.8-322,65.8z"/>
		</g>
		<g>
			<path class="st0" d="M-334.2,84.6l-4.5-0.1c0.1-4.3,1.9-8.3,4.9-11.3c3.2-3.2,7.4-4.9,11.8-4.9c4.5,0,8.7,1.7,11.8,4.9l-3.2,3.2
				c-2.3-2.3-5.4-3.6-8.7-3.6c-3.3,0-6.4,1.3-8.7,3.6C-332.9,78.5-334.1,81.5-334.2,84.6z"/>
		</g>
		<g>
			
				<rect x="-348.7" y="104.7" transform="matrix(0.7071 -0.7071 0.7071 0.7071 -176.3163 -211.8792)" class="st0" width="9.5" height="4.5"/>
		</g>
		<g>
			<path class="st0" d="M-358.3,129.8l-8.4-8.4l16.9-16.9l8.4,8.4L-358.3,129.8z M-360.5,121.3l2.1,2.1l10.5-10.5l-2.1-2.1
				L-360.5,121.3z"/>
		</g>
	</g>
</g>
<g>
	<g>
		<g>
			<path class="st0" d="M-500.4,114.7c-5.8,0-11.6-2.2-16.1-6.7c-8.9-8.9-8.9-23.3,0-32.2c8.9-8.9,23.3-8.9,32.2,0
				c8.9,8.9,8.9,23.3,0,32.2l0,0C-488.8,112.5-494.6,114.7-500.4,114.7z M-500.4,73.5c-4.7,0-9.4,1.8-13,5.4
				c-7.2,7.2-7.2,18.9,0,26.1c7.2,7.2,18.9,7.2,26.1,0c7.2-7.2,7.2-18.9,0-26.1C-491,75.3-495.7,73.5-500.4,73.5z"/>
		</g>
		<g>
			<path class="st0" d="M-512.2,91.6l-4.3-0.1c0.1-4.1,1.8-8,4.7-10.9c3-3,7.1-4.7,11.4-4.7c4.3,0,8.3,1.7,11.4,4.7l-3,3
				c-2.2-2.2-5.2-3.5-8.3-3.5c-3.2,0-6.1,1.2-8.3,3.5C-510.9,85.7-512.1,88.6-512.2,91.6z"/>
		</g>
		<g>
			
				<rect x="-526.1" y="110.9" transform="matrix(0.7071 -0.7071 0.7071 0.7071 -232.7012 -335.6619)" class="st0" width="9.1" height="4.3"/>
		</g>
		<g>
			<path class="st0" d="M-535.4,135.1l-8.1-8.1l16.2-16.2l8.1,8.1L-535.4,135.1z M-537.5,127l2,2l10.1-10.1l-2-2L-537.5,127z"/>
		</g>
	</g>
	<path class="st0" d="M-486.7,64l0.7-0.9c0.8-1.1,0.9-2.5,0.3-3.7c-0.6-1.2-1.8-1.9-3.1-1.9h-10l24.8-33.1l24.8,33.1h-10
		c-1.3,0-2.5,0.8-3.1,1.9c-0.6,1.2-0.5,2.6,0.3,3.7l28.9,38.7h-40.9c-1.9,0-3.5,1.6-3.5,3.5v23.8c0,1.9,1.6,3.5,3.5,3.5
		c1.9,0,3.5-1.6,3.5-3.5v-20.3h44.4c1.3,0,2.6-0.8,3.1-1.9s0.5-2.6-0.3-3.7l-28.9-38.7h10c1.3,0,2.5-0.8,3.1-1.9
		c0.6-1.2,0.5-2.6-0.3-3.7l-31.8-42.6c-1.3-1.8-4.3-1.8-5.6,0l-31.8,42.6c-0.8,1.1-0.9,2.5-0.3,3.7c0.6,1.2,1.8,1.9,3.1,1.9h17.7
		L-486.7,64z"/>
</g>
<g>
	<g>
		<path id="XMLID_00000051366787997989382370000000128176931338192575_" class="st0" d="M-138.9,118.3l38-34.3l-17.5,0.7l-7.3-15.9
			L-138.9,118.3z M-109.7,87.6l-23.2,20.9l12.5-20.5L-109.7,87.6z"/>
		<path id="XMLID_00000121263308982656950900000018432156825694377406_" class="st0" d="M-86.2,32.2l-38,34.3l17.5-0.7l7.3,15.9
			L-86.2,32.2z M-115.4,62.8l23.2-20.9l-12.5,20.5L-115.4,62.8z"/>
	</g>
	<path class="st4" d="M-112.6,16.4c8.1,0,15.9,1.4,23,4.3c7.2,3.1,13.9,7.2,19.4,12.7c5.4,5.4,10,12,13,19
		c2.9,7.1,4.5,14.7,4.5,22.4c0,8-1.6,15.6-4.5,22.5c-3.1,7.1-7.6,13.6-13,19c-5.4,5.4-12.1,9.8-19.4,12.7c-7.1,2.9-14.8,4.5-23,4.5
		c-8,0-15.8-1.6-22.8-4.5c-7.2-2.9-13.9-7.2-19.4-12.7c-5.6-5.4-10-12-13-19c-2.9-6.9-4.5-14.5-4.5-22.5c0-7.8,1.6-15.4,4.5-22.4
		c3.1-7.1,7.4-13.6,13-19c5.4-5.4,12.1-9.6,19.4-12.7C-128.4,17.9-120.6,16.4-112.6,16.4L-112.6,16.4z M-74.4,37.6
		c-5.1-4.9-10.9-8.9-17.6-11.4c-6.3-2.5-13.2-4-20.6-4c-7.2,0-14.1,1.4-20.5,4c-6.7,2.5-12.7,6.5-17.6,11.4
		c-5.1,4.9-9.1,10.7-11.6,17c-2.7,6.3-4.2,13-4.2,20.3c0,7.2,1.4,13.9,4.2,20.1c2.5,6.5,6.5,12.3,11.6,17.2
		c4.9,4.9,10.9,8.9,17.6,11.6c6.3,2.5,13.2,3.8,20.5,3.8c7.4,0,14.3-1.3,20.6-3.8c6.7-2.7,12.5-6.7,17.6-11.6
		c5.1-4.9,8.9-10.7,11.8-17.2c2.5-6.2,4-12.9,4-20.1c0-7.2-1.4-13.9-4-20.3C-65.6,48.3-69.4,42.5-74.4,37.6L-74.4,37.6z"/>
	<path class="st0" d="M-108.9,114.7c-0.4-0.3-0.8-0.5-1.2-0.6c-0.4-0.2-0.8-0.3-1.2-0.4c-0.4-0.1-0.8-0.2-1.3-0.2
		c-0.3,0-0.6,0.1-0.8,0.2c-0.2,0.1-0.3,0.3-0.3,0.5c0,0.2,0.1,0.4,0.3,0.6c0.2,0.1,0.5,0.3,0.9,0.4c0.4,0.1,0.8,0.3,1.4,0.4
		c0.9,0.3,1.6,0.6,2.2,0.9c0.6,0.3,1.1,0.8,1.4,1.3c0.3,0.5,0.5,1.2,0.5,2.1c0,0.8-0.1,1.5-0.4,2.1c-0.3,0.6-0.7,1-1.2,1.3
		c-0.5,0.3-1.1,0.6-1.7,0.7c-0.6,0.1-1.3,0.2-1.9,0.2c-0.7,0-1.3-0.1-2.1-0.2s-1.4-0.3-2.1-0.6c-0.7-0.2-1.3-0.5-1.8-0.8l1.6-3.3
		c0.5,0.3,1,0.6,1.4,0.8c0.4,0.2,0.9,0.4,1.4,0.5c0.5,0.2,1,0.2,1.6,0.2c0.4,0,0.7-0.1,0.9-0.2c0.2-0.1,0.2-0.2,0.2-0.4
		c0-0.3-0.1-0.5-0.4-0.6c-0.3-0.1-0.7-0.3-1.1-0.4c-0.5-0.1-1-0.3-1.5-0.5c-0.8-0.3-1.5-0.6-2-0.9c-0.5-0.3-0.9-0.7-1.1-1.2
		c-0.2-0.5-0.4-1-0.4-1.7c0-1,0.2-1.9,0.7-2.5c0.5-0.7,1.1-1.2,1.9-1.5c0.8-0.4,1.6-0.5,2.5-0.5c0.7,0,1.3,0.1,1.9,0.2
		c0.6,0.2,1.2,0.4,1.8,0.6s1,0.5,1.4,0.7L-108.9,114.7z"/>
	<path class="st0" d="M-151.4,78.6v3.3h-9.8V68.1h9.6v3.3h-5.8v1.9h5v3.1h-5v2.2H-151.4z"/>
	<path class="st0" d="M-69.6,82c-1,0-2-0.2-2.8-0.6c-0.9-0.4-1.6-0.9-2.2-1.6c-0.6-0.7-1.1-1.4-1.4-2.2c-0.3-0.8-0.5-1.7-0.5-2.6
		c0-0.9,0.2-1.8,0.5-2.6c0.3-0.8,0.8-1.6,1.5-2.2c0.6-0.7,1.4-1.2,2.2-1.5c0.9-0.4,1.8-0.6,2.8-0.6c1,0,2,0.2,2.8,0.6
		c0.9,0.4,1.6,0.9,2.2,1.6c0.6,0.7,1.1,1.4,1.4,2.3c0.3,0.8,0.5,1.7,0.5,2.6c0,0.9-0.2,1.8-0.5,2.6c-0.3,0.8-0.8,1.6-1.5,2.2
		c-0.6,0.7-1.4,1.2-2.2,1.5C-67.6,81.8-68.5,82-69.6,82z M-72.7,75c0,0.5,0.1,0.9,0.2,1.3s0.3,0.8,0.6,1.2c0.3,0.3,0.6,0.6,1,0.8
		c0.4,0.2,0.9,0.3,1.4,0.3s1-0.1,1.4-0.3c0.4-0.2,0.7-0.5,1-0.8c0.3-0.4,0.4-0.7,0.6-1.2c0.1-0.4,0.2-0.9,0.2-1.3
		c0-0.5-0.1-0.9-0.2-1.3c-0.1-0.4-0.3-0.8-0.6-1.2c-0.3-0.3-0.6-0.6-1-0.8c-0.4-0.2-0.9-0.3-1.4-0.3c-0.5,0-1,0.1-1.4,0.3
		c-0.4,0.2-0.7,0.5-1,0.8c-0.3,0.3-0.4,0.7-0.6,1.2S-72.7,74.5-72.7,75z"/>
	<path class="st0" d="M-114.9,32.9v6.8h-3.8V25.9h2.9l5.5,7v-7h3.8v13.7h-3L-114.9,32.9z"/>
</g>
<g>
	<g>
		<path class="st0" d="M93.5,97.8c-10.6,0-21.1-4-29.2-12.1c-16.1-16.1-16.1-42.3,0-58.4c16.1-16.1,42.3-16.1,58.4,0
			c16.1,16.1,16.1,42.3,0,58.4l0,0C114.7,93.7,104.1,97.8,93.5,97.8z M93.5,23c-8.6,0-17.1,3.3-23.7,9.8
			c-13.1,13.1-13.1,34.3,0,47.3c13,13.1,34.3,13.1,47.3,0c13.1-13.1,13.1-34.3,0-47.3C110.7,26.3,102.1,23,93.5,23z"/>
	</g>
	<g>
		<path class="st0" d="M72.1,55.9l-7.8-0.2c0.2-7.5,3.3-14.5,8.5-19.8c5.5-5.5,12.9-8.6,20.7-8.6c7.8,0,15.1,3,20.7,8.6l-5.5,5.5
			c-4-4-9.4-6.3-15.1-6.3c-5.7,0-11.1,2.2-15.1,6.3C74.5,45.2,72.3,50.4,72.1,55.9z"/>
	</g>
	<g>
		
			<rect x="46.9" y="90.9" transform="matrix(0.7071 -0.7071 0.7071 0.7071 -50.8954 66.7865)" class="st0" width="16.6" height="7.8"/>
	</g>
	<g>
		<path class="st0" d="M30,134.8L15.2,120l29.5-29.5l14.7,14.7L30,134.8z M26.3,120l3.7,3.7l18.4-18.4l-3.7-3.7L26.3,120z"/>
	</g>
</g>
</svg>
