<?xml version="1.0" encoding="utf-8"?>
<!-- Generator: Adobe Illustrator 27.0.1, SVG Export Plug-In . SVG Version: 6.00 Build 0)  -->
<svg version="1.1" id="Capa_1" xmlns="http://www.w3.org/2000/svg" xmlns:xlink="http://www.w3.org/1999/xlink" x="0px" y="0px"
	 viewBox="0 0 300 300" style="enable-background:new 0 0 300 300;" xml:space="preserve">
<style type="text/css">
	.st0{fill:#83B62C;}
</style>
<g>
	<g>
		<path class="st0" d="M97.5,124.6c-30.8,0-55.8,25-55.8,55.8s25,55.8,55.8,55.8s55.8-25,55.8-55.8S128.3,124.6,97.5,124.6z
			 M97.5,220.9c-22.4,0-40.5-18.1-40.5-40.5S75.2,140,97.5,140s40.5,18.1,40.5,40.5S119.9,220.9,97.5,220.9z"/>
		<path class="st0" d="M187.8,166.4c-0.8-0.2-11.2-3.5-20.2-6.4c-1.5-5.1-3.5-10-6.1-14.6c4.3-8.4,9.3-18.1,9.8-18.8
			c0.8-1.3,0.4-2.8-0.9-4c-4.6-4.6-13.8-13.8-15-15c-1.4-1.4-2.7-1.6-4.1-0.9c-0.8,0.4-10.4,5.4-18.8,9.7c-4.6-2.5-9.5-4.6-14.6-6.1
			c-2.9-9-6.2-19.4-6.4-20.2c-0.3-1.4-1.7-2.2-3.5-2.2c-6.5,0-19.6,0-21.2,0c-2,0-3.1,0.7-3.5,2.2c-0.2,0.8-3.5,11.2-6.4,20.2
			c-5.1,1.5-10,3.5-14.6,6.1c-8.4-4.3-18.1-9.3-18.8-9.8c-1.3-0.8-2.8-0.4-4,0.9c-4.6,4.6-13.8,13.8-15,15c-1.4,1.4-1.6,2.7-0.9,4.1
			c0.4,0.8,5.4,10.4,9.7,18.8c-2.5,4.6-4.6,9.5-6.1,14.6c-9,2.9-19.4,6.2-20.2,6.4c-1.2,0.3-2,1.6-2,3.4c0,6.5,0,19.6,0,21.2
			c0,2,0.7,3.1,2.2,3.5c0.8,0.2,11.2,3.5,20.2,6.4c1.5,5.1,3.5,10,6.1,14.6c-4.3,8.4-9.3,18.1-9.8,18.8c-0.8,1.3-0.4,2.8,0.9,4
			c4.6,4.6,13.8,13.8,15,15c1.4,1.4,2.7,1.6,4.1,0.9c0.8-0.4,10.4-5.4,18.8-9.7c4.6,2.5,9.5,4.6,14.6,6.1c2.9,9,6.2,19.4,6.4,20.2
			c0.3,1.4,1.7,2.2,3.5,2.2c6.5,0,19.6,0,21.2,0c2,0,3.1-0.7,3.5-2.2c0.2-0.8,3.5-11.2,6.4-20.2c5.1-1.5,10-3.5,14.6-6.1
			c8.4,4.3,18.1,9.3,18.8,9.8c1.3,0.8,2.8,0.4,4-0.9c4.6-4.6,13.8-13.8,15-15c1.4-1.4,1.6-2.7,0.9-4.1c-0.4-0.8-5.4-10.4-9.7-18.8
			c2.5-4.6,4.6-9.5,6.1-14.6c9-2.9,19.4-6.2,20.2-6.4c1.4-0.3,2.2-1.7,2.2-3.5c0-6.5,0-19.6,0-21.2
			C190,167.9,189.3,166.8,187.8,166.4z M97.5,240.6c-33.2,0-60.1-26.9-60.1-60.1s26.9-60.1,60.1-60.1s60.1,26.9,60.1,60.1
			S130.7,240.6,97.5,240.6z"/>
	</g>
	<g>
		<path class="st0" d="M226,54.4c-23,0-41.6,18.6-41.6,41.6s18.6,41.6,41.6,41.6S267.6,119,267.6,96S249,54.4,226,54.4z M226,126.3
			c-16.7,0-30.2-13.5-30.2-30.2s13.5-30.2,30.2-30.2s30.2,13.5,30.2,30.2S242.6,126.3,226,126.3z"/>
		<path class="st0" d="M293.3,85.6c-0.6-0.2-8.4-2.6-15.1-4.8c-1.1-3.8-2.6-7.5-4.5-10.9c3.2-6.3,7-13.5,7.3-14
			c0.6-0.9,0.3-2.1-0.6-3c-3.4-3.4-10.3-10.3-11.2-11.2c-1.1-1.1-2-1.2-3-0.7c-0.6,0.3-7.8,4-14,7.3c-3.4-1.9-7.1-3.4-10.9-4.5
			c-2.2-6.7-4.6-14.5-4.8-15.1c-0.3-1.1-1.2-1.7-2.6-1.7c-4.8,0-14.6,0-15.8,0c-1.5,0-2.3,0.6-2.6,1.7c-0.2,0.6-2.6,8.4-4.8,15.1
			c-3.8,1.1-7.5,2.6-10.9,4.5c-6.3-3.2-13.5-7-14-7.3c-0.9-0.6-2.1-0.3-3,0.6c-3.4,3.4-10.3,10.3-11.2,11.2c-1.1,1.1-1.2,2-0.7,3
			c0.3,0.6,4,7.8,7.3,14c-1.9,3.4-3.4,7.1-4.5,10.9c-6.7,2.2-14.5,4.6-15.1,4.8c-1.1,0.3-1.7,1.2-1.7,2.6c0,4.8,0,14.6,0,15.8
			c0,1.5,0.6,2.3,1.7,2.6c0.6,0.2,8.4,2.6,15.1,4.8c1.1,3.8,2.6,7.5,4.5,10.9c-3.2,6.3-7,13.5-7.3,14c-0.6,0.9-0.3,2.1,0.6,3
			c3.4,3.4,10.3,10.3,11.2,11.2c1.1,1.1,2,1.2,3,0.7c0.6-0.3,7.8-4,14-7.3c3.4,1.9,7.1,3.4,10.9,4.5c2.2,6.7,4.6,14.5,4.8,15.1
			c0.3,1.1,1.2,1.7,2.6,1.7c4.8,0,14.6,0,15.8,0c1.5,0,2.3-0.6,2.6-1.7c0.2-0.6,2.6-8.4,4.8-15.1c3.8-1.1,7.5-2.6,10.9-4.5
			c6.3,3.2,13.5,7,14,7.3c0.9,0.6,2.1,0.3,3-0.6c3.4-3.4,10.3-10.3,11.2-11.2c1.1-1.1,1.2-2,0.7-3c-0.3-0.6-4-7.8-7.3-14
			c1.9-3.4,3.4-7.1,4.5-10.9c6.7-2.2,14.5-4.6,15.1-4.8c1.1-0.3,1.7-1.2,1.7-2.6c0-4.8,0-14.6,0-15.8
			C295,86.7,294.4,85.9,293.3,85.6z M226,140.9c-24.8,0-44.9-20.1-44.9-44.9s20.1-44.9,44.9-44.9s44.9,20.1,44.9,44.9
			C270.8,120.8,250.7,140.9,226,140.9z"/>
	</g>
</g>
</svg>
